<svg width="64" height="64" viewBox="0 0 64 64" fill="none" xmlns="http://www.w3.org/2000/svg">
<rect width="64" height="64" fill="white"/>
<path d="M18.5 55H6V36H12.5C12.5 36 11.5 32 12 26C12.2526 22.9691 12.7994 19.7408 15.5 16.5C16.6877 15.0747 18.8253 12.966 21.5 11.5C24.8641 9.65607 28.9004 8.99999 31 9C35 9.00001 40.1758 10.3379 42.5 11.5C44.8242 12.6621 46.5849 13.9331 48.5 16.5C50.8265 19.6183 51.8502 24.0531 52 26C52.5 32.5 51.5 36 51.5 36H58V55H45V32.5C45 29 44.5 25.5 42.5 22.5C40.6302 19.6954 36.5915 17 31 17C25 17 22.3333 20.5 21 22.5C19.6667 24.5 18.5 27.5 18.5 32.5V55Z" fill="black" stroke="black"/>
</svg>
