<svg width="64" height="64" viewBox="0 0 64 64" fill="none" xmlns="http://www.w3.org/2000/svg">
<g clip-path="url(#clip0_13_72)">
<rect width="64" height="64" fill="white"/>
<path d="M10.5 30L2 38V15C2 13.4257 1.93205 12.2051 3 11C3.9863 9.88708 5.24971 9.50001 6.5 9.5L56 9.5C58.5 9.5 59.5 11 60 11.5C60.5 12 61.0057 13 61 15C60.9943 17 61 35 61 47.5C61 49.5 60.7516 51.319 60 52.5C59.2484 53.681 57.5 54 55 54L13 54V62L0.5 49.5L13 37V45.5H52V18H10.5V30Z" fill="black" stroke="black"/>
</g>
<defs>
<clipPath id="clip0_13_72">
<rect width="64" height="64" fill="white"/>
</clipPath>
</defs>
</svg>
