<svg width="64" height="64" viewBox="0 0 64 64" fill="none" xmlns="http://www.w3.org/2000/svg">
<rect width="64" height="64" fill="white"/>
<path d="M21 11H8V16H12.5V55C12.5 57.627 14.924 58.9848 17.5 59.5C22.5 60.5 39.5 61 47.5 59.5C49.811 59.0667 51.5 57.3513 51.5 55V15.5H55.5V11H42V7C42 4.64873 39.5838 4.08924 37.5 3C33.5199 0.919512 30.011 0.979849 26 3C23.6538 4.18167 21 4.87302 21 7.5V11Z" fill="black" stroke="black"/>
<path d="M20 20H25V51H20V20Z" fill="white"/>
<path d="M24 7H39V11H24V7Z" fill="white"/>
<path d="M29 20H34V51H29V20Z" fill="white"/>
<path d="M38 20H43V51H38V20Z" fill="white"/>
</svg>
